<?xml version="1.0" encoding="utf-8"?>
<!-- Generator: Adobe Illustrator 15.1.0, SVG Export Plug-In . SVG Version: 6.00 Build 0)  -->
<svg version="1.2" baseProfile="tiny" id="Layer_1" xmlns="http://www.w3.org/2000/svg" xmlns:xlink="http://www.w3.org/1999/xlink"
	 x="0px" y="0px" width="235px" height="238px" viewBox="0 0 235 238" overflow="inherit" xml:space="preserve">
<path fill="#FFFFFF" d="M42.302,120.561c0.736-4.552,0.556-8.679,0.196-13.18c-0.522-6.54-1.678-12.98-2.394-19.497
	c-1.029-9.359-1.969-18.728-2.82-28.104c-0.419-4.616-0.828-9.234-1.192-13.854c-0.032-0.405-0.069-0.827-0.098-1.256
	c-0.08-1.176-0.099-2.407,0.219-3.49c0.555-1.887,2.313-2.959,3.906-3.903c3.96-2.348,6.657-4.487,9.057-8.459
	c0.741-1.227,1.166-2.705,0.869-4.108c-0.029-0.138-0.07-0.282-0.174-0.377c-0.145-0.13-0.362-0.126-0.557-0.113
	c-2.325,0.147-4.424-0.004-6.71-0.126c-2.586-0.138-5.281,0.69-7.823,1.126c-7.796,1.336-15.378,3.617-23.004,5.683
	c-2.612,0.708-8.556,0.873-9.411,4.175c-1.25,4.819,9.315,4.207,11.996,4.908c3.909,1.024,6.803,4.491,8.212,8.277
	c1.346,3.619,1.049,7.477,2.17,11.102c1.079,3.487,1.898,6.724,2.546,10.378c1.816,10.259,3.751,20.497,5.803,30.711
	c0.962,4.788,1.616,9.636,2.702,14.4c0.704,3.088,1.405,8.131,3.58,10.532C41.833,128.094,41.987,122.51,42.302,120.561"/>
<path fill="#FFFFFF" d="M101.604,95.265c0.11-2.131,0.353-4.197,0.484-6.313c0.207-3.351,0.512-6.668,0.765-10.003
	c9.345-0.389,18.687-0.365,28.041-0.332c-0.363,7.254-0.902,14.499-1.63,21.726c-0.545,5.413-1.11,10.827-1.88,16.214
	c-0.738,5.171-0.995,10.378-1.433,15.605c-0.062,0.736-0.123,1.484,0.025,2.211c0.149,0.723,0.54,1.432,1.186,1.793
	c2.533,1.412,3.807-4.502,4.305-6.145c0.845-2.783,1.409-5.641,2.013-8.48c1.103-5.18,2.649-10.167,3.779-15.346
	c0.901-4.126,1.801-8.253,2.702-12.38c0.811-3.716,1.997-7.354,2.736-11.108l0.803-4.083c0.537-0.002,1.073-0.001,1.609-0.004
	c1.224-0.009,2.445-0.024,3.662-0.048c3.611-0.071,7.222-0.215,10.824-0.471c2.561-0.182,7.009,0.089,8.981-1.948
	c0.225-0.232,0.322-0.567,0.32-0.891c-0.007-0.818-0.611-1.537-1.337-1.919c-0.724-0.382-1.557-0.49-2.369-0.593
	c-3.829-0.483-7.659-0.967-11.49-1.45c-2.806-0.354-5.696-1.038-8.499-1.32c0.386-1.96,0.771-3.92,1.156-5.88
	c1.147-5.824,1.788-11.744,3.118-17.533c2.121-9.232,13.503-5.668,16.921-12.73c2.656-5.486-5.302-6.678-8.831-6.956
	c-9.172-0.722-18.394-1.78-27.619-1.445c-2.106,0.077-6.633-1.169-8.121,0.881c-0.449,0.619-0.705,1.18-0.812,1.693
	c-0.504,2.452,3.555,5.4,5.357,6.574c3.52,2.292,5.375,2.991,6.082,7.706c0.871,5.802-0.017,11.615-0.618,17.429
	c-0.32,3.092-0.445,6.137-0.549,9.205c-2.464-0.38-4.938-0.709-7.437-0.684c-6.715,0.065-13.432-1.167-20.175-1.354
	c0.377-4.235,0.853-8.448,1.255-12.722c0.635-6.75,0.614-13.671,1.574-20.384c0.178-1.242,0.444-2.47,0.703-3.698
	c0.625-2.962,0.237-6.344,1.568-9.052c1.347-2.742,3.866-5.089,6.632-6.387c0.717-0.336,1.465-0.606,2.175-0.959
	c2.003-0.997,4.352-2.101,4.084-4.727c-0.183-1.787-1.791-4.972-3.77-5.231c-7.753-1.015-15.603-0.863-23.375-0.175
	c-3.894,0.345-7.775,0.824-11.648,1.35c-1.38,0.188-3.988,0.05-5.04,0.965c-2.627,2.285-0.526,6.173,1.684,7.701
	c4.43,3.064,9.582,2.226,12.129,7.757c0.775,1.684,0.697,3.617,0.667,5.47c-0.09,5.512,0.356,11.005,0.835,16.496
	c0.667,7.642,1.384,15.279,0.825,22.947c-4.387-0.529-8.764-1.231-13.177-1.387c-4.12-0.146-7.377-2.495-10.273-5.392
	c-1.864-1.864-2.525-4.738-3.539-7.157c-0.522-1.245-0.694-2.806-1.829-3.636c-2.625-1.921-4.211,1.454-4.411,3.654
	c-0.054,0.586-0.193,1.154-0.352,1.72c-0.255,0.901-0.562,1.796-0.66,2.75c-0.473,4.637-0.602,9.321-0.458,13.979
	c0.139,4.513,0.085,8.919,0.224,13.434c0.091,2.924,0.18,5.855,0.541,8.761c0.267,2.147,0.434,5.293,1.681,7.138
	c0.628,0.931,1.922,1.53,2.904,0.984c0.456-0.253,0.765-0.699,1.058-1.13c1.591-2.343,3.185-4.688,4.632-7.123
	c1.631-2.743,2.251-5.41,4.834-7.428c2.522-1.97,5.485-3.332,8.544-4.23c3.383-0.993,6.893-1.439,10.413-1.721
	c0.123,7.502,0.584,15.047,1.099,22.572c0.243,3.561-0.084,7.329,1.017,10.776c0.39,1.22,0.94,1.94,1.718,1.864
	c2.22-0.217,1.976-5.006,2.25-6.478C100.97,103.999,101.384,99.521,101.604,95.265"/>
<path fill="#FFFFFF" d="M231.828,52.555c-2.357-2.823-5.038-5.559-7.062-8.558c-1.863-2.761-4.197-4.684-7.024-6.43
	c-5.392-3.332-10.061-8.221-16.008-10.557c-0.836-0.329-1.8-0.588-2.572-0.099c-0.509,0.323-0.837,0.921-1.056,1.532
	c-1.66,4.633,1.842,9.495,2.305,14.467c0.434,4.659-1.75,7.967-3.83,11.789c-1.186,2.179-2.152,4.263-3.005,6.554
	c-1.027,2.764-3.146,5.302-4.74,7.779c-2.38,3.694-4.758,7.388-7.137,11.083c-2.079,3.229-4.729,5.952-6.656,9.223
	c-3.881,6.591-8.543,12.348-13.005,18.486c-1.283,1.768-7.552,13.895-3.658,12.608c0.671-0.223,1.207-0.725,1.718-1.212
	c5.801-5.552,10.928-11.646,16.32-17.616c4.065-4.503,8.591-8.665,11.89-13.826c5.303-8.296,13.091-16.417,19.946-23.582
	c1.571-1.643,2.965-3.551,4.92-4.775c3.812-2.388,8.783-1.995,13-1.474c1.675,0.207,4.589,0.671,6.143-0.108
	C234.531,56.729,233.033,53.998,231.828,52.555"/>
<path fill="#FFFFFF" d="M191.337,216.908c-2.054,0.045-4.106,0.148-6.159,0.148c-1.461,0-2.331,0.658-2.992,1.943
	c-0.546,1.062-1.225,2.166-2.125,2.912c-3.656,3.037-10.155,2.744-13.671-0.48c-3.931-3.607-4.645-10.666-1.593-15.062
	c2.812-4.047,9.58-5.559,13.418-2.711c1.951,1.447,3.229,3.359,4.044,5.623c0.512,1.422,1.095,1.828,2.585,1.836
	c1.071,0.004,2.143-0.051,3.214-0.08c1.13-0.029,2.263-0.025,3.391-0.098c1.665-0.105,2.315-1.012,1.945-2.629
	c-0.086-0.375-0.148-0.758-0.254-1.127c-1.772-6.215-5.517-10.705-11.604-13.057c-4.769-1.844-9.655-1.791-14.532-0.496
	c-11.438,3.035-17.178,13.547-14.451,24.547c1.605,6.482,5.582,11.08,11.802,13.539c6.454,2.553,12.977,2.426,19.309-0.398
	c5.093-2.273,8.532-6.121,9.877-11.656C193.997,217.781,193.271,216.867,191.337,216.908"/>
<path fill="#FFFFFF" d="M145.7,212.297c-2.068-4.945-4.142-9.887-6.219-14.828c-0.978-2.324-2.338-3.217-4.813-3.164
	c-1.725,0.037-3.45,0.084-5.176,0.137c-2.535,0.082-3.912,1.09-4.631,3.508c-3.359,11.297-6.701,22.598-10.037,33.9
	c-0.505,1.711,0.235,2.625,2.043,2.584c1.993-0.045,3.987-0.102,5.98-0.16c1.549-0.045,2.354-0.695,2.709-2.193
	c0.258-1.098,0.51-2.193,0.737-3.295c0.158-0.764,0.581-1.076,1.368-1.092c3.957-0.082,7.915-0.184,11.871-0.32
	c0.866-0.029,1.316,0.32,1.569,1.109c0.351,1.1,0.743,2.188,1.141,3.27c0.517,1.406,1.344,1.959,2.844,1.928
	c1.071-0.023,2.143-0.057,3.214-0.086c1.042-0.027,2.083-0.053,3.124-0.084c2.11-0.059,2.722-0.992,1.911-2.934
	C150.793,224.482,148.248,218.389,145.7,212.297 M136.085,218.555c-0.92,0.049-1.843,0.055-2.765,0.08
	c-0.921,0.025-1.843,0.062-2.764,0.072c-0.923,0.008-1.223-0.326-1.027-1.195c0.771-3.436,1.549-6.871,2.361-10.299
	c0.077-0.324,0.404-0.59,0.616-0.883c0.246,0.264,0.61,0.484,0.724,0.797c1.247,3.42,2.463,6.85,3.667,10.285
	C137.175,218.203,136.945,218.51,136.085,218.555"/>
<path fill="#FFFFFF" d="M222.285,191.963c-8.299,0.215-16.598,0.438-24.896,0.666c-1.554,0.043-2.344,0.781-2.354,2.295
	c-0.012,1.547,0.038,3.096,0.147,4.639c0.111,1.586,0.845,2.201,2.435,2.166c1.696-0.035,3.391-0.1,5.087-0.127
	c1.038-0.018,1.375,0.324,1.427,1.365c0.015,0.268,0.017,0.535,0.023,0.803c0.229,8.537,0.455,17.074,0.687,25.611
	c0.056,1.99,0.779,2.678,2.738,2.627c1.993-0.051,3.986-0.105,5.979-0.16c1.917-0.053,2.562-0.717,2.515-2.623
	c-0.11-4.342-0.231-8.686-0.347-13.029c-0.118-4.432-0.24-8.863-0.354-13.295c-0.033-1.277,0.323-1.646,1.608-1.686
	c1.873-0.057,3.748-0.094,5.621-0.154c1.544-0.051,2.269-0.795,2.256-2.357c-0.013-1.486-0.053-2.975-0.118-4.461
	C224.669,192.67,223.863,191.922,222.285,191.963"/>
<path fill="#FFFFFF" d="M27.424,178.764c1.08-0.621,2.242-1.164,3.173-1.969c6.141-5.307,5.688-15.006-0.854-19.83
	c-3.35-2.471-7.158-3.436-11.236-3.486c-3.912-0.049-7.825-0.014-11.737-0.01c-2.207,0-2.942,0.736-2.944,2.951
	c-0.004,5.674-0.001,11.348,0,17.021c0,5.369-0.005,12.852,0.002,18.555l10.768-0.266c0.002-2.695-0.002-6.504,0.001-8.605
	c0.001-0.297-0.052-0.637,0.073-0.879c0.161-0.316,0.442-0.721,0.732-0.777c0.285-0.057,0.675,0.234,0.965,0.445
	c0.177,0.129,0.259,0.393,0.375,0.6c1.676,2.984,3.376,5.955,5.013,8.961c0.017,0.029,0.039,0.049,0.056,0.08l12.523-0.307
	c-0.002-0.008-0.002-0.014-0.004-0.02c-0.14-0.322-0.34-0.625-0.549-0.912c-2.281-3.131-4.575-6.254-6.853-9.387
	C26.212,179.943,26.383,179.361,27.424,178.764 M23.75,168.484c-0.274,2.061-1.863,3.701-4.012,3.969
	c-1.297,0.158-2.618,0.15-3.93,0.16c-0.835,0.008-1.228-0.475-1.217-1.318c0.017-1.285,0.005-2.57,0.005-3.855
	c-0.001-1.225-0.006-2.449,0.001-3.674c0.006-1.033,0.305-1.395,1.298-1.377c1.718,0.031,3.476-0.27,5.125,0.465
	C23.185,163.82,24.112,165.758,23.75,168.484"/>
<path fill="#FFFFFF" d="M61.59,184.521c-3.286-0.006-6.571,0.002-9.857-0.004c-1.335-0.002-1.597-0.27-1.608-1.635
	c-0.009-1.135-0.007-2.27-0.001-3.404c0.008-1.469,0.316-1.773,1.796-1.777c2.778-0.004,5.556,0.014,8.333-0.012
	c1.457-0.016,2.181-0.773,2.198-2.227c0.013-1.225,0.004-2.449,0.003-3.674c-0.002-1.998-0.683-2.688-2.682-2.693
	c-2.718-0.006-5.437,0.004-8.155-0.004c-1.183-0.004-1.467-0.281-1.489-1.477c-0.02-1.045-0.005-2.09-0.005-3.135
	c0-2.207,0.054-2.264,2.232-2.264c2.867,0,5.735,0.012,8.602-0.004c1.63-0.01,2.357-0.641,2.435-2.195
	c0.074-1.461,0.097-2.928,0.038-4.389c-0.058-1.449-0.85-2.156-2.3-2.158c-6.154-0.008-12.307-0.012-18.46,0.002
	c-2.124,0.006-3.169,1.021-3.171,3.111c-0.012,11.17-0.013,22.342-0.001,33.514c0,0.381,0.045,0.711,0.11,1.02l24.677-0.605
	c0.021-1.105,0.016-2.213,0.01-3.318C64.284,185.199,63.599,184.523,61.59,184.521"/>
<path fill="#FFFFFF" d="M222.887,153.469c-1.105-0.012-2.211,0.006-3.316-0.004c-1.442-0.012-2.562,0.541-3.449,1.717
	c-3.539,4.688-7.117,9.35-10.685,14.02c-0.919,1.203-1.312,1.189-2.183-0.047c-3.246-4.605-6.512-9.197-9.731-13.822
	c-0.903-1.295-2.071-1.908-3.63-1.871c-1.045,0.025-2.091,0.004-3.137,0.006c-2.275,0.006-3,0.721-3.002,2.988
	c-0.003,5.676-0.001,11.354-0.001,17.031c0,4.699,0,9.396,0.001,14.094l10.052-0.246c0-4.803,0-9.604,0.001-14.408
	c0-0.297-0.055-0.613,0.021-0.891c0.08-0.291,0.238-0.697,0.457-0.77c0.204-0.068,0.621,0.168,0.789,0.389
	c0.667,0.877,1.272,1.801,1.903,2.707c1.481,2.127,2.972,4.246,4.442,6.383c1.094,1.59,5.24,1.641,6.437-0.262
	c1.489-2.369,3.234-4.576,4.869-6.852c0.505-0.703,0.993-1.418,1.535-2.092c0.141-0.174,0.489-0.328,0.68-0.273
	c0.178,0.051,0.337,0.377,0.39,0.607c0.073,0.314,0.046,0.652,0.046,0.98c0.002,3.676,0.002,7.352,0.002,11.025
	c0,0.977,0.003,1.951,0.002,2.928l10.112-0.248c0.003-9.926,0.004-19.85,0.002-29.773c0-0.33,0.008-0.66-0.028-0.986
	C225.282,154.154,224.548,153.488,222.887,153.469"/>
<path fill="#FFFFFF" d="M171.745,178.74c1.058-0.6,2.184-1.141,3.098-1.92c6.112-5.215,5.72-14.984-0.728-19.787
	c-3.362-2.506-7.194-3.502-11.307-3.555c-3.91-0.049-7.823-0.014-11.735-0.01c-2.256,0-2.977,0.727-2.978,3.008
	c-0.003,5.674-0.001,11.348-0.001,17.021c0,4.986-0.001,9.973,0,14.957l10.77-0.264c0.001-1.707,0.001-3.414,0.003-5.123
	c0-0.266-0.051-0.576,0.062-0.793c0.167-0.318,0.437-0.764,0.708-0.799c0.321-0.041,0.71,0.268,1.031,0.484
	c0.157,0.105,0.23,0.342,0.332,0.523c1.045,1.859,2.094,3.717,3.136,5.578l12.052-0.295c-1.656-2.271-3.316-4.539-4.97-6.812
	C170.468,179.922,170.636,179.369,171.745,178.74 M168.019,168.494c-0.272,2.025-1.822,3.664-3.931,3.947
	c-1.324,0.178-2.678,0.16-4.018,0.172c-0.838,0.008-1.222-0.486-1.21-1.328c0.019-1.283,0.005-2.568,0.005-3.854
	c0-1.254-0.01-2.51,0.003-3.764c0.009-0.912,0.327-1.291,1.216-1.275c1.746,0.029,3.536-0.283,5.213,0.467
	C167.459,163.824,168.386,165.771,168.019,168.494"/>
<path fill="#FFFFFF" d="M140.353,183.363c2.285-4.086,3.014-8.508,2.374-13.129c-0.762-5.492-3.377-9.92-7.884-13.188
	c-4.062-2.945-8.689-4.039-13.392-4.123c-3.139,0.043-5.997,0.436-8.732,1.453c-4.914,1.828-8.706,4.963-11.055,9.723
	c-1.963,3.979-2.496,8.162-1.787,12.521c0.877,5.391,3.35,9.725,7.576,12.832l28.515-0.699
	C137.677,187.287,139.153,185.508,140.353,183.363 M129.085,181.178c-2.413,2.631-5.564,3.381-8.97,3.09
	c-4.149-0.355-7.199-2.398-8.673-6.391c-1.575-4.268-0.982-9.844,2.423-12.875c2.546-2.268,5.592-2.816,8.842-2.51
	c3.154,0.297,5.772,1.631,7.511,4.383c1.213,1.92,1.68,4.053,1.639,6.055C131.859,176.17,131.146,178.932,129.085,181.178"/>
<path fill="#FFFFFF" d="M91.921,153.469c-6.092-0.004-12.184-0.004-18.276,0c-2.567,0-3.508,0.936-3.51,3.498
	c-0.006,5.555-0.002,11.107-0.002,16.664c0,5.578-0.004,11.158,0.003,16.738l10.767-0.264c0.001-3.553,0-7.107,0-10.66
	c0-1.572,0.217-1.783,1.828-1.783c3.106,0,6.212,0.004,9.317-0.002c1.542-0.004,2.292-0.764,2.302-2.314
	c0.008-1.314,0.003-2.629,0.001-3.943c-0.003-1.867-0.657-2.529-2.528-2.533c-3.106-0.006-6.211,0.002-9.317-0.002
	c-1.288-0.002-1.597-0.309-1.602-1.564c-0.004-1.045-0.002-2.09-0.001-3.137c0.002-1.449,0.271-1.723,1.719-1.725
	c3.195-0.002,6.39,0.01,9.586-0.006c1.558-0.006,2.314-0.754,2.338-2.295c0.021-1.342,0.011-2.688,0.006-4.031
	C94.546,154.16,93.861,153.469,91.921,153.469"/>
</svg>
